{"title":"WWE Friday Night Smackdown 22_7_2011 Bzingaz","uid":6558090,"size":608435192,"categoryP":"video","categoryS":"tv_shows","magnet":"?xt=urn:btih:c80d25f0ddb4cb92b753b8e4c3231cb13956fe16&amp;dn=WWE+Friday+Night+Smackdown+22_7_2011+Bzingaz&amp;tr=udp%3A%2F%2Ftracker.openbittorrent.com%3A80&amp;tr=udp%3A%2F%2Fopen.demonii.com%3A1337&amp;tr=udp%3A%2F%2Ftracker.coppersurfer.tk%3A6969&amp;tr=udp%3A%2F%2Fexodus.desync.com%3A6969","seeders":0,"leechers":1,"uploader":"bzingaz","files":7,"time":1311355107,"description":"WWE Friday Night Smackdown 22_7_2011 in flv format in 7 parts!! please seed and comment.\n\ndetails of 1 of files are:\n\n\nVideo\nFormat                           : AVC\nFormat/Info                      : Advanced Video Codec\nFormat profile                   : &lt;a class=&quot;__cf_email__&quot; href=&quot;/cdn-cgi/l/email-protection&quot; data-cfemail=&quot;135e727a7d535f203d23&quot;&gt;[email&amp;#160;protected]&lt;/a&gt;&lt;script cf-hash='f9e31' type=&quot;text/javascript&quot;&gt;\n/* &lt;![CDATA[ */!function(){try{var t=&quot;currentScript&quot;in document?document.currentScript:function(){for(var t=document.getElementsByTagName(&quot;script&quot;),e=t.length;e--;)if(t[e].getAttribute(&quot;cf-hash&quot;))return t[e]}();if(t&amp;&amp;t.previousSibling){var e,r,n,i,c=t.previousSibling,a=c.getAttribute(&quot;data-cfemail&quot;);if(a){for(e=&quot;&quot;,r=parseInt(a.substr(0,2),16),n=2;a.length-n;n+=2)i=parseInt(a.substr(n,2),16)^r,e+=String.fromCharCode(i);e=document.createTextNode(e),c.parentNode.replaceChild(e,c)}}}catch(u){}}();/* ]]&gt; */&lt;/script&gt;\nFormat settings, CABAC           : Yes\nFormat settings, ReFrames        : 3 frames\nFormat settings, GOP             : M=1, N=49\nCodec ID                         : 7\nDuration                         : 14mn 29s\nBit rate                         : 770 Kbps\nWidth                            : 624 pixels\nHeight                           : 352 pixels\nDisplay aspect ratio             : 16:9\nFrame rate mode                  : Constant\nFrame rate                       : 29.970 fps\nColor space                      : YUV\nChroma subsampling               : 4:2:0\nBit depth                        : 8 bits\nScan type                        : Progressive\nBits/(Pixel*Frame)               : 0.117\nStream size                      : 79.8 MiB (85%)\n\nAudio\nFormat                           : AAC\nFormat/Info                      : Advanced Audio Codec\nFormat profile                   : LC\nCodec ID                         : 10\nDuration                         : 14mn 29s\nBit rate                         : 129 Kbps\nChannel(s)                       : 2 channels\nChannel positions                : Front: L R\nSampling rate                    : 44.1 KHz\nCompression mode                 : Lossy\nStream size                      : 13.3 MiB (14%)\n","torrent":{"xt":"urn:btih:c80d25f0ddb4cb92b753b8e4c3231cb13956fe16","amp;dn":"WWE+Friday+Night+Smackdown+22_7_2011+Bzingaz","amp;tr":["udp%3A%2F%2Ftracker.openbittorrent.com%3A80","udp%3A%2F%2Fopen.demonii.com%3A1337","udp%3A%2F%2Ftracker.coppersurfer.tk%3A6969","udp%3A%2F%2Fexodus.desync.com%3A6969"],"infoHash":"c80d25f0ddb4cb92b753b8e4c3231cb13956fe16","infoHashBuffer":{"type":"Buffer","data":[200,13,37,240,221,180,203,146,183,83,184,228,195,35,28,177,57,86,254,22]},"announce":[],"urlList":[]}}